<svg clip-rule="evenodd" fill-rule="evenodd" height="720" image-rendering="optimizeQuality" shape-rendering="geometricPrecision" text-rendering="geometricPrecision" viewBox="0 0 848 719.85" width="848" xmlns="http://www.w3.org/2000/svg"><path d="m168.29 73.4c0-40.54 32.86-73.4 73.4-73.4h365.07c40.54 0 73.39 32.86 73.39 73.4v365.08c0 40.53-32.85 73.39-73.39 73.39h-365.07c-40.54 0-73.4-32.86-73.4-73.39zm89.3 388.32c-21.62 0-39.14-17.53-39.14-39.15v-333.15c0-21.62 17.52-39.14 39.14-39.14h44.65c58.83 0 102.4 59.61 64.77 97.3l-109.17 109.32 93.69 98.15c45.43 47.59-7.77 106.67-58.17 106.67zm141.68-411.44h37.73c58.83 0 102.41 59.61 64.77 97.3l-109.17 109.32 200.7 204.74-211.8-.04c45.51 0 74.24-76.56 25.53-127.27l-74.37-77.43 86.58-89.25c46.62-48.07 12.79-109.9-19.97-117.37zm230.68 372.29-162.52-165.67 86.58-89.25c46.62-48.07 12.78-109.9-19.98-117.37h56.71c21.62 0 39.14 17.52 39.14 39.14zm-596.82 244.02v29.83h13.32c6.91 0 12.15-1.29 15.72-3.88 3.58-2.59 5.36-6.36 5.36-11.3 0-4.88-1.63-8.55-4.91-10.99-3.27-2.44-8.16-3.66-14.65-3.66zm0-50.88v28.37h10.28c7.16 0 12.51-1.21 16.06-3.63 3.54-2.41 5.32-6.1 5.32-11.05 0-4.47-1.67-7.87-5.01-10.2s-8.26-3.49-14.76-3.49zm-33.13-22.88h52c15.37 0 26.92 2.76 34.67 8.28 7.74 5.51 11.61 13.72 11.61 24.63 0 7.33-2.02 13.43-6.08 18.29-4.05 4.85-9.95 8.35-17.69 10.5 8.69 1.61 15.38 5.02 20.05 10.24 4.68 5.2 7.02 11.86 7.02 19.96 0 11.92-4.26 20.75-12.78 26.5s-21.65 8.62-39.4 8.62h-49.4v-127.02zm174.1 28.33-16.44 47.63h32.35zm-19.75-28.33h40.85l48.08 127.02h-36.19l-9.03-26.9h-48.89l-9.47 26.9h-33.5zm96.26 0h42.26l36.79 76.16c1.25 2.56 2.71 6.12 4.37 10.68 1.67 4.56 3.52 10.15 5.54 16.76-1.07-6.26-1.86-12.01-2.37-17.25-.5-5.24-.76-10.04-.76-14.39v-71.96h30.57v127.02h-42.09l-38.21-78.93c-1.79-3.63-3.43-7.58-4.91-11.84-1.49-4.26-2.86-8.89-4.11-13.9 1.19 7.57 2.06 14.52 2.63 20.87.57 6.34.85 11.93.85 16.76v67.04h-30.56zm140.44 0h33.86v54.89l39.33-54.89h37.9l-46.66 58.37 51.42 68.65h-42.07l-39.92-58.9v58.9h-33.86zm214.39 73.76v29.83h13.32c6.91 0 12.15-1.29 15.72-3.88 3.58-2.59 5.36-6.36 5.36-11.3 0-4.88-1.63-8.55-4.91-10.99s-8.16-3.66-14.65-3.66zm0-50.88v28.37h10.28c7.16 0 12.51-1.21 16.05-3.63 3.55-2.41 5.33-6.1 5.33-11.05 0-4.47-1.67-7.87-5.01-10.2s-8.26-3.49-14.76-3.49zm-33.13-22.88h52c15.36 0 26.92 2.76 34.66 8.28 7.75 5.51 11.62 13.72 11.62 24.63 0 7.33-2.03 13.43-6.08 18.29-4.05 4.85-9.95 8.35-17.7 10.5 8.7 1.61 15.38 5.02 20.06 10.24 4.68 5.2 7.01 11.86 7.01 19.96 0 11.92-4.25 20.75-12.77 26.5s-21.65 8.62-39.4 8.62h-49.4zm154.7 22.33v32.58h11.88c7.33 0 12.82-1.33 16.48-3.98 3.67-2.66 5.5-6.64 5.5-11.95 0-5.73-2.04-9.93-6.12-12.62s-10.53-4.03-19.34-4.03zm-33.13-22.33h50.46c16.82 0 29.3 2.73 37.44 8.18 8.14 5.46 12.21 13.76 12.21 24.9 0 8.23-2.14 15-6.44 20.3-4.3 5.31-10.51 8.85-18.62 10.64 6.68 2.44 12.05 9.38 16.11 20.82l15.17 42.18h-35.31l-11.18-34.76c-1.79-5.6-4.23-9.48-7.33-11.62-3.09-2.15-7.92-3.22-14.47-3.22h-4.91v49.6h-33.13zm120.26 0h33.86v127.02h-33.86z" fill="#1f4396"/></svg>