<svg clip-rule="evenodd" fill-rule="evenodd" height="720" image-rendering="optimizeQuality" shape-rendering="geometricPrecision" text-rendering="geometricPrecision" viewBox="0 0 2510 720.04" width="2510" xmlns="http://www.w3.org/2000/svg" xmlns:xlink="http://www.w3.org/1999/xlink"><linearGradient id="a" gradientUnits="userSpaceOnUse" x1="1068.46" x2="2412.87" y1="443.11" y2="-113.28"><stop offset="0" stop-color="#f6ad02"/><stop offset=".2" stop-color="#fff000"/><stop offset=".411765" stop-color="#f6ad02"/><stop offset=".658824" stop-color="#fff000"/><stop offset=".788235" stop-color="#f6ad02"/><stop offset="1" stop-color="#fff000"/></linearGradient><path d="m1862.44 410.4h87.51v300.91h-87.51zm-215.37 300.91v-207.5c0-16.98-.3-33.27-.9-48.94-.59-15.59-1.39-30.38-2.6-44.47h80.23l3.19 53.85c7.6-18.48 19.78-32.46 36.47-41.96 16.58-9.49 37.36-14.18 62.14-14.18h2.59l-.3 79.02c-5.29-.4-9.19-.7-11.79-.9-2.7-.2-5.09-.3-7.19-.3-22.88 0-40.76 5.59-53.64 16.69-12.99 11.08-19.49 26.57-19.49 46.25v162.44zm-132.31-300.91h87.51v300.91h-87.51zm-141.81 300.91-2.89-42.96c-10.79 16.19-23.77 28.38-38.96 36.57-15.18 8.19-32.36 12.29-51.55 12.29-36.46 0-66.03-14.29-88.81-42.86-22.68-28.58-34.06-66.44-34.06-113.39 0-47.26 11.09-85.12 33.36-113.49 22.28-28.37 51.75-42.56 88.41-42.56 19.88 0 37.27 3.89 52.05 11.59 14.89 7.7 27.67 19.48 38.37 35.26v-172.12h86.91v371.13c0 15.19.2 27.57.69 36.97.51 9.48 1.31 17.38 2.21 23.57zm-127.57-149.85c0 31.07 5.4 55.15 16.09 72.23s25.77 25.57 45.05 25.57c19.68 0 35.37-8.69 46.86-26.17s17.28-41.36 17.28-71.63c0-30.38-5.79-54.45-17.28-71.93-11.49-17.58-27.18-26.37-46.86-26.37-19.28 0-34.36 8.58-45.05 25.87-10.69 17.28-16.09 41.46-16.09 72.43zm-413.57 149.85v-243.17c0-8.58-.2-17.57-.7-26.97-.49-9.38-1.29-19.67-2.19-30.77h83.32l1.79 45.16c11.29-18.18 24.78-31.47 40.27-39.86 15.48-8.39 34.46-12.59 56.94-12.59 33.16 0 57.74 9.4 73.82 28.28 16.08 18.77 24.18 47.54 24.18 86.21v193.71h-86.02v-181.72c0-22.48-3.89-38.56-11.59-48.35-7.69-9.69-20.18-14.59-37.55-14.59-16.79 0-30.38 5.4-40.57 16.28-10.29 10.79-15.38 25.18-15.38 43.16v185.22zm-829.51 0v-243.17c0-10.79-.21-20.87-.6-30.36-.41-9.49-1-18.58-1.7-27.38h82.82l2.3 45.16c11.28-18.18 24.67-31.47 40.26-39.86 15.48-8.39 34.46-12.59 56.84-12.59 22.67 0 41.75 5 57.44 15.09 15.58 10.09 26.97 24.67 34.17 43.76 9.79-20.28 22.57-35.17 38.35-44.66 15.79-9.49 35.77-14.19 60.04-14.19 33.17 0 57.85 9.4 74.04 28.28 16.18 18.77 24.27 47.54 24.27 86.21v193.71h-86.91v-181.72c0-22.48-3.9-38.56-11.59-48.35-7.7-9.69-20.18-14.59-37.57-14.59-16.78 0-30.26 5.4-40.26 16.28-10.09 10.79-15.08 25.18-15.08 43.16v185.22h-86.91v-181.72c0-22.28-3.8-38.27-11.39-48.15-7.59-9.89-19.88-14.79-36.87-14.79-16.77 0-30.06 5.4-39.95 16.09-9.89 10.79-14.79 25.17-14.79 43.35v185.22h-86.91zm703.38-31.43c-17.53 15.31-51.83 31.74-75.41 37.04-9.04 2.12-18.9 3.12-29.56 3.12-25.29 0-46.45-8.91-63.5-26.65-17.05-17.83-25.53-40.53-25.53-68.11 0-22.15 4.36-40.16 13.01-54.13 8.73-14.06 21-25.1 36.92-33.18 15.75-8 35.38-13.79 58.73-17.19s47.58-5.97 72.62-7.53v-1.66c0-71.96-102.63-63-146.51-32.24l-15.19-56.69c34.3-16.1 68.04-24.28 109.99-24.28 73.58 0 135.72 35.28 135.72 119.59v193.99h-71.29zm-6.89-58.71v-58.01c-13.26 1.27-27.73 2.97-43.23 5.1-15.49 2.22-27.25 4.78-35.28 7.65-9.8 3.5-17.36 8.71-22.49 15.4-5.24 6.79-7.85 15.61-7.85 26.65 0 76.21 88.99 51.47 108.85 3.21z" fill="#0061ae" fill-rule="nonzero"/><path d="m971.33 218.73c26.85 30 76.81 111.35 135.95 106.33 138.57-11.78 217.48-161.62 388.55-150.93 70.28 4.4 103.37 122.27 173.05 132.42 109.84 16.01 215.08-152.88 394.1-143.19 73.59 3.98 104.01 127.63 177.37 134.77 68.39 6.66 175.51-90.3 269.65-140.56-23.97-40.37-68.51-103.41-115.93-106.6-93.35-6.28-168.03 112.98-250.13 92.16-47.79-12.12-102.22-143.39-180.94-143.13-145.72.48-246.28 144.76-375.12 156.16-73.11 6.47-108.26-156.14-206.16-141.19-133.98 20.45-270.91 130.85-410.39 203.76z" fill="url(#a)"/></svg>